# xmcd
#
# Track frame offsets:
#	150
#	15050
#	28340
#	42357
#	57932
#	71357
#	83922
#	96395
#	110860
#	123842
#	138110
#	151660
#	166255
#	181892
#	194722
#	209155
#	224402
#	238550
#	253852
#	267007
#	282275
#	297987
#	312815
#	326827
#	339775
#
# Disc length: 4707 seconds
#
# Revision: 1
# Processed by: cddbd v1.5.2PL0 Copyright (c) Steve Scherf et al.
# Submitted via: EasyCDDAExtractor 10.0.3.1
#
DISCID=71126119
DTITLE=Red Foley - Old Shep (The Red Foley Recordings, 1933-50) - Disc 1
DYEAR=2006
DGENRE=Country
TTITLE0=The Lone Cowboy
TTITLE1=Single Life Is Good Enough For Me
TTITLE2=Blonde Headed Girl
TTITLE3=The Dying Rustler
TTITLE4=I Traced Her Little Footsteps In The Snow
TTITLE5=Seven Long Years
TTITLE6=Just One Little Kiss
TTITLE7=Echoes Of My Old Plantation Home
TTITLE8=I Got The Freight Train Blues
TTITLE9=In My Childhood Days
TTITLE10=Hi Rinktum, Inktum Doodle (with Lulu Belle)
TTITLE11=Going Out West This Fall (with Lulu Belle)
TTITLE12=Going Out West This Fall (with Lulu Belle)
TTITLE13=Daffy Over Taffy (Lulu Belle)
TTITLE14=Little Black Moustache (Lulu Belle)
TTITLE15=Old Shep
TTITLE16=Yodeling Radio Joe
TTITLE17=Headin' Back To Texas
TTITLE18=Sing Me A Hill-Billy Ballad
TTITLE19=The 1936 Floods
TTITLE20=My Renfro Valley Home
TTITLE21=An Old Fashioned Shack
TTITLE22=The Mailman's Warning
TTITLE23=Old Shep
TTITLE24=A Rose And A Player
EXTD=
EXTT0=
EXTT1=
EXTT2=
EXTT3=
EXTT4=
EXTT5=
EXTT6=
EXTT7=
EXTT8=
EXTT9=
EXTT10=
EXTT11=
EXTT12=
EXTT13=
EXTT14=
EXTT15=
EXTT16=
EXTT17=
EXTT18=
EXTT19=
EXTT20=
EXTT21=
EXTT22=
EXTT23=
EXTT24=
PLAYORDER=
